<?xml version="1.0" standalone="no"?>
<!DOCTYPE svg PUBLIC "-//W3C//DTD SVG 20010904//EN"
 "http://www.w3.org/TR/2001/REC-SVG-20010904/DTD/svg10.dtd">
<svg version="1.0" xmlns="http://www.w3.org/2000/svg"
 width="310.000000pt" height="310.000000pt" viewBox="0 0 310.000000 310.000000"
 preserveAspectRatio="xMidYMid meet">
<metadata>
Created by potrace 1.11, written by Peter Selinger 2001-2013
</metadata>
<g transform="translate(0.000000,310.000000) scale(0.100000,-0.100000)"
fill="#000000" stroke="none">
<path d="M60 2421 c0 -6 -7 -7 -17 -4 -12 5 -14 3 -8 -8 8 -12 6 -12 -8 0 -14
11 -18 11 -22 0 -3 -8 -4 -378 -3 -824 l3 -810 415 0 c276 -1 417 3 422 10 5
6 8 5 8 -3 0 -8 5 -10 13 -5 14 9 19 10 48 12 11 0 17 5 14 11 -3 5 0 7 8 4 8
-3 31 2 52 10 20 9 41 13 46 10 5 -3 9 -1 9 5 0 6 11 13 25 17 14 3 25 10 25
15 0 5 7 9 15 9 9 0 18 7 21 15 4 8 10 13 14 10 5 -3 11 -1 15 5 4 6 11 8 16
4 5 -3 8 -2 7 3 -4 11 39 53 46 46 3 -4 6 1 6 11 0 9 11 21 25 28 13 6 22 14
20 18 -3 4 3 14 13 21 9 7 14 9 10 5 -4 -5 -3 -15 2 -21 6 -7 11 -24 12 -39 1
-14 6 -26 10 -26 4 0 8 -13 8 -30 0 -16 4 -30 9 -30 6 0 10 -8 10 -18 1 -38 5
-52 13 -52 5 0 7 -4 3 -9 -3 -5 -1 -12 5 -16 6 -4 8 -10 5 -15 -3 -4 2 -11 11
-14 10 -4 13 -2 8 7 -6 9 -4 9 7 1 8 -6 41 -10 74 -9 33 2 65 -1 72 -7 7 -6
14 -5 19 3 5 8 3 9 -6 4 -9 -5 -11 -4 -6 4 4 6 10 9 14 7 4 -2 24 -7 45 -10
27 -4 36 -3 31 5 -4 8 0 8 15 0 11 -7 21 -9 21 -5 0 3 8 0 17 -7 9 -8 14 -9
10 -3 -4 7 0 14 7 17 8 3 17 1 19 -6 3 -7 10 1 16 16 6 16 9 33 5 38 -3 5 -1
9 3 9 5 0 9 8 10 18 3 34 8 47 23 54 12 5 12 7 -2 7 -16 1 -16 4 2 34 11 18
18 43 15 55 -2 12 1 22 6 22 6 0 6 8 -1 20 -8 16 -8 20 2 18 9 -2 12 7 11 25
-1 15 2 25 7 22 6 -4 8 7 6 24 -2 17 1 31 6 31 6 0 8 7 4 15 -3 8 -1 15 5 15
6 0 9 7 5 15 -3 8 0 15 7 15 8 0 6 4 -3 10 -11 7 -11 10 -2 10 7 0 10 5 7 10
-3 6 -1 10 6 10 8 0 8 4 -1 15 -10 12 -10 15 0 15 7 0 10 7 6 15 -3 8 -2 15 2
15 4 0 9 8 10 18 1 9 3 26 4 37 2 11 10 26 18 33 8 8 9 11 3 7 -7 -3 -13 -1
-13 4 0 6 4 11 10 11 5 0 7 7 4 15 -4 8 -1 15 6 15 10 0 10 3 0 15 -9 11 -9
15 -1 15 7 0 9 5 6 10 -3 6 -1 10 6 10 8 0 7 5 -2 17 -10 11 -10 14 -1 9 12
-7 13 -4 16 44 0 14 7 29 14 33 9 6 9 13 1 29 -8 15 -8 19 0 14 7 -5 11 2 11
16 0 13 6 30 13 37 10 11 9 12 -3 6 -13 -8 -13 -7 -1 8 7 9 10 17 6 17 -4 0
-2 6 4 13 6 8 8 17 4 20 -3 4 0 14 8 24 12 15 12 16 -1 8 -12 -7 -13 -6 -3 7
7 8 10 17 7 21 -3 3 3 10 14 16 17 9 19 7 16 -14 -1 -14 2 -25 7 -25 5 0 9 -5
9 -11 0 -5 -4 -8 -9 -4 -5 3 -3 -8 5 -25 9 -16 13 -34 9 -40 -3 -5 -2 -10 4
-10 6 0 8 -7 5 -15 -4 -9 0 -15 7 -15 11 0 11 -3 -1 -10 -12 -7 -12 -10 -1
-10 7 0 11 -6 7 -15 -3 -8 -2 -15 2 -15 4 0 9 -14 10 -32 2 -18 6 -35 10 -38
4 -3 7 -12 7 -20 -1 -8 4 -21 9 -29 9 -12 8 -13 -4 -6 -9 5 -7 -1 5 -15 11
-13 14 -20 6 -15 -10 6 -12 4 -5 -6 9 -16 15 -35 17 -61 1 -10 5 -18 9 -18 4
0 5 -7 2 -15 -4 -9 0 -15 7 -15 11 0 11 -3 -1 -10 -12 -7 -12 -10 -1 -10 7 0
11 -6 7 -15 -3 -8 -1 -15 3 -15 5 0 8 -13 7 -29 -1 -17 1 -28 5 -25 12 7 17
-34 5 -47 -8 -9 -8 -10 2 -5 8 5 12 0 12 -13 0 -32 1 -35 12 -48 6 -7 7 -13 3
-13 -4 0 -3 -6 2 -12 6 -7 9 -23 8 -35 -1 -12 2 -20 7 -17 4 3 8 -5 8 -18 0
-42 3 -58 13 -58 5 0 7 -6 4 -12 -2 -7 2 -26 10 -42 10 -18 10 -26 3 -21 -9 6
-9 2 -1 -14 7 -12 9 -27 5 -33 -5 -7 -3 -8 6 -3 10 6 12 4 7 -7 -3 -9 0 -21 6
-27 8 -8 7 -11 -4 -11 -11 0 -11 -2 -1 -9 7 -4 14 -18 15 -29 1 -12 7 -22 13
-22 7 0 20 -3 30 -7 12 -5 15 -3 9 6 -6 10 -3 11 11 3 11 -5 46 -8 79 -7 33 2
65 -1 72 -7 7 -6 14 -5 19 3 5 8 3 9 -6 4 -9 -5 -11 -4 -6 4 4 6 10 9 14 7 4
-2 24 -7 45 -10 28 -4 36 -3 31 6 -4 7 -3 8 4 4 28 -17 52 -15 52 5 0 13 4 18
12 13 7 -4 8 -3 4 5 -4 6 -2 19 6 28 11 14 11 16 -2 8 -12 -6 -13 -5 -2 6 6 7
12 23 12 35 0 12 6 25 13 27 8 4 8 6 -2 6 -11 1 -10 5 5 17 10 8 13 13 7 9 -7
-3 -13 -2 -13 3 0 6 7 13 16 16 13 5 14 9 5 20 -9 10 -9 16 -1 21 6 4 9 13 6
21 -3 8 -1 14 5 14 6 0 9 6 6 13 -2 6 3 21 12 31 9 11 10 16 4 12 -7 -4 -13
-2 -13 3 0 6 5 11 11 11 5 0 7 5 4 10 -4 6 -1 17 5 25 7 8 10 22 6 30 -3 8 -1
15 5 15 6 0 8 4 5 9 -4 5 0 12 6 14 9 4 9 6 1 6 -8 1 -7 10 3 31 9 16 13 34 9
40 -3 5 -1 10 5 10 7 0 10 7 6 15 -3 8 -1 15 4 15 5 0 7 7 4 15 -4 8 -1 22 6
30 6 8 9 19 5 25 -3 5 -2 10 3 10 8 0 10 6 14 50 1 11 6 20 10 20 4 0 5 7 2
15 -4 9 0 15 7 15 11 0 11 3 -1 10 -12 7 -12 10 -1 10 7 0 11 6 7 15 -3 8 -1
15 5 15 6 0 9 7 5 15 -3 8 -1 15 4 15 5 0 7 7 4 15 -4 8 -1 15 4 15 6 0 9 11
6 25 -2 14 0 25 6 25 6 0 9 4 6 8 -3 5 1 21 9 36 8 15 9 24 3 20 -7 -5 -8 -2
-2 7 8 14 13 30 18 59 1 9 5 21 10 28 4 6 4 17 1 22 -3 6 -1 10 5 10 6 0 8 5
5 10 -3 6 -1 10 6 10 10 0 10 3 2 11 -9 9 -8 15 3 26 8 8 12 19 8 24 -3 6 0
16 6 24 6 8 9 19 5 25 -3 5 -2 10 4 10 5 0 8 9 6 20 -2 11 1 20 7 20 6 0 9 3
5 6 -3 3 -2 17 4 31 5 13 11 38 14 56 4 18 13 42 21 54 12 20 12 22 -2 16 -12
-5 -12 0 4 28 10 19 19 41 20 49 1 22 7 44 13 55 4 6 6 22 5 37 -1 14 2 24 6
22 4 -3 8 5 8 17 0 19 -2 20 -17 8 -9 -8 -14 -9 -10 -2 5 8 -4 10 -31 7 -81
-10 -93 -10 -98 -2 -3 5 -13 4 -22 -1 -12 -7 -23 -5 -36 7 -13 11 -16 12 -11
3 6 -11 3 -13 -12 -9 -12 3 -26 2 -33 -2 -7 -4 -26 -4 -41 0 -17 5 -29 5 -29
-1 0 -5 -6 -8 -12 -7 -8 2 -13 -9 -13 -29 0 -18 -3 -33 -8 -33 -4 0 -6 -4 -2
-9 3 -5 1 -12 -4 -16 -5 -3 -8 -14 -6 -25 2 -11 -1 -20 -7 -20 -6 0 -5 -7 3
-17 8 -9 9 -14 3 -10 -7 4 -15 0 -18 -9 -9 -23 -8 -26 6 -18 6 4 4 -3 -5 -15
-8 -13 -13 -30 -10 -37 3 -8 1 -14 -4 -14 -5 0 -10 -14 -11 -32 -2 -18 -8 -36
-15 -40 -9 -6 -9 -8 0 -8 12 0 2 -41 -19 -84 -6 -12 -6 -16 1 -12 7 4 8 1 5
-8 -3 -9 -10 -16 -14 -16 -5 0 -6 -9 -3 -21 4 -12 0 -25 -8 -30 -12 -7 -12 -9
0 -9 11 0 10 -4 -5 -16 -10 -8 -13 -13 -6 -9 6 3 12 1 12 -4 0 -6 -5 -11 -11
-11 -5 0 -7 -5 -4 -10 4 -6 1 -18 -7 -27 -11 -14 -11 -16 2 -8 12 7 12 5 -1
-11 -9 -10 -14 -25 -11 -33 2 -7 -2 -17 -9 -22 -9 -5 -10 -9 -2 -9 12 0 2 -41
-19 -84 -7 -14 -6 -16 4 -10 10 6 11 5 1 -7 -11 -14 -24 -64 -27 -106 0 -13
-5 -23 -10 -23 -4 0 -6 -7 -2 -15 3 -8 0 -15 -6 -15 -6 0 -8 -3 -5 -7 4 -3 1
-13 -6 -21 -9 -13 -9 -14 1 -8 6 4 12 3 12 -3 0 -5 -5 -11 -12 -13 -6 -2 -13
-20 -14 -39 -2 -18 -5 -44 -6 -56 -3 -29 -9 -29 -26 -2 -8 12 -9 18 -3 14 6
-3 11 -1 11 4 0 6 -5 11 -11 11 -6 0 -9 9 -6 20 3 11 0 20 -5 20 -6 0 -5 6 2
15 11 13 10 14 -4 9 -13 -5 -15 0 -12 25 2 17 0 31 -4 31 -4 0 -7 10 -6 23 1
12 -2 25 -6 28 -4 3 -9 18 -10 35 -1 16 -5 34 -10 40 -4 6 -9 23 -10 38 -1 14
-5 26 -9 26 -3 0 -5 11 -4 25 2 14 -1 27 -5 30 -5 3 -7 12 -3 20 3 8 0 15 -6
15 -7 0 -11 6 -10 13 2 6 -3 30 -9 51 -6 22 -9 43 -6 48 3 4 1 8 -5 8 -5 0 -8
9 -6 20 2 11 -1 20 -7 20 -6 0 -8 9 -5 20 3 11 1 20 -4 20 -4 0 -6 7 -3 15 4
8 2 15 -4 15 -5 0 -8 11 -7 25 2 14 -1 25 -5 25 -5 0 -7 9 -5 20 2 11 -1 20
-7 20 -6 0 -8 3 -5 7 4 3 -1 16 -10 27 -17 20 -17 20 1 6 18 -14 19 -14 8 7
-7 12 -11 26 -10 30 1 4 -3 18 -10 29 -6 12 -9 24 -5 27 3 4 0 14 -8 24 -12
15 -12 16 1 8 11 -6 10 -3 -2 11 -14 16 -15 23 -6 32 9 9 9 12 -1 12 -7 0 -9
5 -6 10 3 6 2 10 -4 10 -5 0 -8 9 -6 20 2 11 0 20 -5 20 -5 0 -6 7 -3 17 5 12
3 14 -8 8 -11 -7 -11 -5 1 10 9 11 10 16 3 11 -7 -4 -13 -3 -13 1 0 5 -9 14
-21 21 -12 8 -18 9 -14 3 3 -7 -3 -11 -17 -11 -13 0 -31 0 -40 0 -10 0 -24 0
-30 0 -7 1 -28 -1 -46 -3 -18 -2 -35 0 -38 5 -3 4 -14 4 -24 -2 -13 -7 -21 -7
-26 1 -4 8 -9 7 -15 -2 -5 -8 -9 -9 -9 -4 0 6 -12 10 -27 9 -19 -1 -28 -6 -27
-17 1 -10 -3 -14 -9 -10 -6 4 -8 0 -4 -10 3 -10 2 -17 -3 -17 -6 0 -10 -16
-10 -36 0 -19 -4 -33 -9 -30 -4 3 -7 -8 -5 -25 2 -16 0 -28 -4 -25 -4 2 -9 -4
-10 -15 -4 -42 -6 -49 -12 -49 -4 0 -5 -11 -2 -25 2 -14 0 -25 -6 -25 -6 0 -9
-9 -7 -20 2 -11 -1 -20 -6 -20 -6 0 -7 -5 -4 -10 4 -6 2 -16 -3 -23 -5 -7 -8
-20 -7 -29 2 -10 0 -18 -4 -18 -6 0 -10 -17 -13 -57 -1 -7 -6 -13 -12 -13 -6
0 -4 -5 4 -10 12 -8 12 -10 1 -10 -8 0 -11 -3 -8 -7 4 -3 1 -13 -6 -21 -10
-13 -9 -14 3 -7 12 7 13 6 3 -6 -7 -9 -14 -25 -16 -37 -2 -12 -6 -24 -9 -28
-4 -3 -4 -12 -1 -20 3 -8 1 -14 -4 -14 -9 0 -11 -9 -15 -67 -2 -17 -7 -29 -12
-25 -5 3 -7 -2 -3 -11 3 -10 2 -17 -3 -17 -5 0 -7 -7 -4 -15 4 -8 2 -15 -4
-15 -5 0 -8 -11 -7 -25 2 -14 -1 -27 -6 -31 -5 -3 -7 -9 -4 -14 3 -5 1 -11 -5
-15 -6 -4 -8 -11 -4 -16 3 -6 -2 -20 -13 -31 -10 -12 -12 -18 -5 -14 7 4 12 1
12 -8 0 -9 -5 -16 -11 -16 -5 0 -8 -4 -5 -8 3 -5 -1 -21 -9 -36 -8 -14 -10
-24 -5 -21 6 4 10 1 10 -4 0 -6 -5 -11 -11 -11 -5 0 -7 -4 -4 -10 3 -5 0 -10
-7 -10 -10 0 -10 -2 1 -9 7 -5 11 -14 7 -19 -8 -14 -32 -6 -34 11 -1 7 -4 26
-6 42 -2 17 -7 38 -10 47 -4 9 -9 25 -11 35 -2 10 -4 18 -5 18 -2 0 -11 38
-12 53 -1 6 -6 12 -11 12 -5 0 -4 6 2 14 8 9 8 15 2 18 -6 1 -11 18 -13 36 -1
17 -5 32 -8 32 -7 0 -9 10 -12 55 -1 14 -6 25 -10 25 -4 0 -8 13 -8 28 0 16
-3 32 -7 35 -3 4 -8 21 -10 39 -2 18 -8 35 -14 39 -8 5 -8 8 0 13 8 5 7 13 -3
28 -8 11 -12 27 -9 36 5 10 2 13 -6 8 -8 -5 -11 -3 -10 5 2 8 -2 24 -9 37 -7
12 -10 22 -7 22 4 0 -1 7 -9 16 -9 8 -14 19 -11 24 3 4 -2 11 -11 14 -9 3 -14
12 -11 20 3 8 -5 19 -18 26 -13 7 -21 18 -19 25 3 6 -7 20 -21 31 -14 10 -25
25 -25 32 0 7 -5 10 -10 7 -5 -3 -10 1 -10 9 0 9 -11 18 -25 22 -13 3 -23 11
-22 16 1 6 -25 25 -58 43 -33 18 -65 38 -71 43 -7 6 -14 8 -18 5 -3 -3 -12 -1
-19 5 -7 7 -23 13 -35 15 -12 2 -25 6 -28 10 -4 4 -20 7 -36 7 -16 0 -28 5
-28 13 0 8 -4 7 -10 -3 -5 -8 -10 -10 -10 -4 0 10 -17 13 -93 15 -20 1 -40 5
-43 10 -3 5 -11 6 -17 2 -19 -11 -47 -11 -47 1 0 7 -3 7 -8 1 -4 -5 -14 -10
-22 -10 -8 0 -18 5 -22 10 -5 6 -8 6 -8 -1 0 -14 -80 -13 -80 1 0 5 -4 4 -9
-4 -6 -9 -11 -10 -15 -2 -4 6 -12 8 -18 5 -19 -12 -78 -13 -78 -2 0 6 -6 6
-15 -2 -12 -10 -15 -10 -15 1 0 9 -3 10 -8 3 -9 -13 -75 -13 -84 1 -5 6 -8 5
-8 -4 0 -10 -3 -11 -13 -2 -8 6 -17 8 -20 5 -11 -11 -77 -13 -77 -2 0 6 -6 6
-15 -2 -12 -10 -15 -10 -15 1 0 10 -3 10 -8 3 -8 -12 -40 -12 -60 0 -6 4 -12
3 -12 -3z m326 -310 c-3 -5 11 -7 32 -4 20 2 42 4 47 4 95 -6 125 -5 126 4 0
5 4 1 9 -10 7 -17 9 -17 9 -2 1 9 6 17 12 17 5 0 8 -4 4 -10 -3 -5 7 -8 25 -5
16 2 32 0 35 -5 3 -5 16 -5 30 0 15 6 27 6 30 -1 4 -5 11 -7 16 -4 5 4 9 2 9
-4 0 -6 7 -8 15 -5 8 4 15 2 15 -4 0 -5 11 -8 24 -7 14 2 27 -3 30 -11 3 -8
15 -14 26 -14 12 0 18 -4 15 -10 -3 -5 1 -10 10 -10 18 0 85 -64 85 -80 0 -6
5 -10 10 -10 6 0 10 -7 10 -15 0 -8 5 -15 12 -15 6 0 8 -3 5 -7 -4 -3 1 -15
10 -26 13 -15 14 -18 3 -12 -12 7 -12 5 1 -11 9 -10 14 -25 12 -31 -3 -7 0
-13 6 -13 5 0 8 -9 6 -20 -2 -11 0 -20 4 -20 5 0 7 -11 6 -25 -2 -14 1 -27 6
-31 5 -3 9 -10 9 -15 0 -6 -4 -8 -9 -4 -6 3 -5 -10 0 -31 6 -20 8 -42 6 -49
-3 -7 0 -18 6 -25 9 -9 9 -11 0 -6 -12 7 -10 -54 3 -75 4 -8 3 -9 -4 -5 -8 5
-10 -3 -6 -26 4 -25 3 -29 -5 -18 -8 11 -9 6 -6 -23 3 -21 1 -36 -4 -33 -4 3
-7 -6 -5 -19 1 -14 -4 -31 -11 -39 -8 -7 -12 -16 -9 -19 7 -6 -17 -57 -28 -57
-4 0 -8 -7 -8 -15 0 -9 -12 -28 -27 -42 -16 -15 -21 -23 -13 -19 8 4 6 1 -4
-6 -11 -7 -28 -21 -38 -30 -10 -10 -21 -18 -24 -18 -4 0 -13 -8 -21 -17 -8
-10 -11 -12 -8 -5 6 11 3 11 -16 0 -13 -7 -26 -15 -29 -18 -5 -5 -10 -6 -56
-8 -17 -2 -23 -6 -18 -14 6 -10 4 -10 -8 0 -11 8 -18 9 -22 3 -5 -7 -15 -7
-31 -1 -16 6 -25 6 -25 -1 0 -6 -7 -6 -19 1 -14 7 -22 7 -27 -1 -4 -8 -9 -7
-15 2 -5 8 -9 9 -9 3 0 -6 -7 -11 -15 -11 -8 0 -15 5 -15 11 0 6 -5 4 -10 -4
-6 -10 -10 -11 -10 -3 0 9 -7 10 -23 4 -14 -5 -30 -5 -40 0 -11 7 -17 6 -17
-1 0 -7 -6 -8 -19 0 -14 7 -22 7 -26 0 -5 -8 -11 -7 -21 1 -11 9 -14 9 -14 -1
0 -9 -4 -10 -13 -2 -9 8 -13 35 -12 84 1 40 -4 79 -9 87 -8 11 -8 13 0 8 7 -4
11 5 12 24 0 19 -3 27 -10 23 -7 -5 -8 -2 -2 7 12 20 12 81 0 98 -8 11 -8 13
0 8 7 -4 11 5 12 24 0 19 -3 27 -10 23 -7 -5 -8 -2 -2 7 12 20 12 71 0 88 -8
11 -8 13 0 8 7 -4 12 2 12 18 0 14 -5 22 -11 18 -6 -4 -7 -1 -1 8 13 22 14 69
1 69 -8 0 -8 3 -2 8 15 11 19 46 4 36 -9 -5 -9 -3 -3 7 12 20 12 51 0 68 -8
11 -8 13 0 8 7 -4 12 2 12 18 0 14 -5 22 -11 18 -6 -4 -7 -1 -1 8 13 22 14 69
1 69 -8 0 -8 3 -2 8 16 11 19 46 3 36 -10 -6 -10 -4 -2 7 12 17 12 48 0 68 -6
10 -5 12 3 7 8 -6 11 0 8 21 -2 15 0 34 6 41 11 14 21 17 13 3z"/>
</g>
</svg>
